<svg width="121" height="142" viewBox="0 0 121 142" fill="none" xmlns="http://www.w3.org/2000/svg">
<path d="M120.211 125.736C118.642 133.502 116.288 133.027 111.267 136.355C110.226 137.045 86 142 85 139.175C82.2832 131.5 73.5 133 71.5001 139.175C70.0993 143.5 29.5223 139.948 14.6019 140C-1.48431 140 3.14655 90.0769 5.34348 76.4471C7.5404 62.8173 19.9373 25.4146 26.5281 16.6978C33.1189 7.98109 45.8297 0.849246 55.402 0.0568161C64.9743 -0.735614 62.6204 6.71323 64.6604 25.4146C66.7004 44.1159 77.6851 51.2478 83.0204 55.5269C88.3558 59.8061 91.1805 61.5494 92.9066 69.4737C94.6328 77.398 105.46 92.4542 111.267 101.171C117.073 109.888 121.78 117.97 120.211 125.736Z" fill="#FE4444"/>
<path d="M37.3654 70.8419C51.5774 69.8228 54.9297 58.6979 54.8293 53.2628C54.7855 50.8936 56.1541 50.4604 57.8403 50.4604C59.948 50.4604 59.0447 51.2247 62.0557 57.3392C65.0667 63.4536 76.8097 68.549 82.5306 68.8038C88.2515 69.0586 100.296 68.0395 99.9945 49.6961C99.6934 31.3526 77.1108 36.1933 68.3788 38.741C59.6469 41.2887 58.1414 43.3269 51.5171 43.3269C46.2178 43.3269 36.747 36.1933 30.4401 36.1933C20.6041 35.3441 0.7515 36.8557 0.0288571 49.6961C-0.874447 65.7465 19.6004 72.1158 37.3654 70.8419Z" fill="white"/>
<path d="M19.9703 98.364C24.0003 98.364 26.8603 96.154 26.8603 93.034C26.8603 90.512 24.9623 88.926 22.0763 88.276L18.5923 87.47C16.2263 86.924 15.0823 85.936 15.0823 84.22C15.0823 82.322 16.9543 80.892 19.7623 80.892C22.5703 80.892 24.4683 82.504 24.6503 84.792H26.3923C26.1843 81.62 23.6103 79.41 19.7883 79.41C15.9663 79.41 13.3143 81.542 13.3143 84.324C13.3143 86.898 15.3163 88.458 18.1243 89.108L21.2963 89.836C23.7663 90.408 25.0663 91.37 25.0663 93.112C25.0663 95.478 23.0123 96.908 19.9703 96.908C16.6683 96.908 14.6143 94.958 14.4323 92.254H12.6903C12.7943 95.868 15.5243 98.364 19.9703 98.364ZM31.7682 98V90.72C31.7682 88.51 33.3542 86.456 35.7202 86.456C38.0342 86.456 38.8922 87.964 38.8922 90.33V98H40.5042V90.174C40.5042 86.95 38.7622 85.13 36.0062 85.13C33.9522 85.13 32.4702 86.378 31.7682 87.73V86.482V79.8H30.1562V98H31.7682ZM47.9079 98.364C50.0139 98.364 51.4699 97.298 52.1199 95.92V97.194V98H53.7059V89.628C53.7059 86.95 52.0159 85.13 49.0259 85.13C45.9839 85.13 44.2679 87.106 44.1119 89.368H45.7499C45.8539 87.782 46.8159 86.456 49.1299 86.456C50.8979 86.456 52.0939 87.47 52.0939 89.056C52.0939 90.018 51.3919 90.33 50.3259 90.512L47.7519 90.928C45.4899 91.292 43.7219 92.41 43.7219 94.698C43.7219 96.934 45.5159 98.364 47.9079 98.364ZM48.0899 97.064C46.5299 97.064 45.3859 96.128 45.3859 94.698C45.3859 93.19 46.5559 92.462 48.2199 92.15L50.4559 91.76C51.3399 91.604 51.9379 91.344 52.0939 91.032V93.06C52.0939 95.244 50.5079 97.064 48.0899 97.064ZM59.2916 98V91.266C59.2916 88.458 60.9556 86.69 63.4256 86.69C63.7376 86.69 63.9716 86.716 64.2056 86.742V85.182C63.9716 85.156 63.7636 85.13 63.5036 85.13C61.4496 85.13 59.9676 86.378 59.2916 87.964V86.3V85.494H57.6796V98H59.2916ZM71.2307 98.364C74.5067 98.364 76.2747 96.492 76.6127 94.204H75.0007C74.6887 96.154 73.1807 97.038 71.2567 97.038C68.7087 97.038 66.9667 95.244 66.9147 91.994H76.6907V91.63C76.6907 87.704 74.6887 85.13 71.1267 85.13C67.8247 85.13 65.3027 87.886 65.3027 91.682C65.3027 95.972 67.6947 98.364 71.2307 98.364ZM66.9927 90.746C67.1747 88.302 68.7867 86.456 71.1267 86.456C73.5707 86.456 74.9227 88.198 74.9747 90.746H66.9927ZM84.8848 98.364C86.7308 98.364 88.4468 97.454 89.3048 95.712V97.064V98H90.9428V79.8H89.3048V86.144V87.73C88.6028 86.326 87.1208 85.13 84.9368 85.13C81.5048 85.13 79.2168 87.938 79.2168 91.734C79.2168 95.764 81.6348 98.364 84.8848 98.364ZM85.1188 97.038C82.5708 97.038 80.8808 94.906 80.8808 91.734C80.8808 88.588 82.5968 86.456 85.1708 86.456C87.7448 86.456 89.3828 88.536 89.3828 91.708C89.3828 94.932 87.6668 97.038 85.1188 97.038ZM37.1089 124.364C41.1389 124.364 43.9989 122.154 43.9989 119.034C43.9989 116.512 42.1009 114.926 39.2149 114.276L35.7309 113.47C33.3649 112.924 32.2209 111.936 32.2209 110.22C32.2209 108.322 34.0929 106.892 36.9009 106.892C39.7089 106.892 41.6069 108.504 41.7889 110.792H43.5309C43.3229 107.62 40.7489 105.41 36.9269 105.41C33.1049 105.41 30.4529 107.542 30.4529 110.324C30.4529 112.898 32.4549 114.458 35.2629 115.108L38.4349 115.836C40.9049 116.408 42.2049 117.37 42.2049 119.112C42.2049 121.478 40.1509 122.908 37.1089 122.908C33.8069 122.908 31.7529 120.958 31.5709 118.254H29.8289C29.9329 121.868 32.6629 124.364 37.1089 124.364ZM51.3248 124.234C51.8188 124.234 52.2348 124.156 52.7028 124.052V122.648C52.3648 122.726 52.0528 122.778 51.6888 122.778C50.5448 122.778 49.7908 122.362 49.7908 120.88V112.898H52.5208V111.494H49.7908V107.516H48.1528V111.494H45.6828V112.898H48.1528V120.984C48.1528 123.402 49.6088 124.234 51.3248 124.234ZM60.4143 124.364C63.6903 124.364 65.4583 122.492 65.7963 120.204H64.1843C63.8723 122.154 62.3643 123.038 60.4403 123.038C57.8923 123.038 56.1503 121.244 56.0983 117.994H65.8743V117.63C65.8743 113.704 63.8723 111.13 60.3103 111.13C57.0083 111.13 54.4863 113.886 54.4863 117.682C54.4863 121.972 56.8783 124.364 60.4143 124.364ZM56.1763 116.746C56.3583 114.302 57.9703 112.456 60.3103 112.456C62.7543 112.456 64.1063 114.198 64.1583 116.746H56.1763ZM72.6383 124.364C74.7443 124.364 76.2003 123.298 76.8503 121.92V123.194V124H78.4363V115.628C78.4363 112.95 76.7463 111.13 73.7563 111.13C70.7143 111.13 68.9983 113.106 68.8423 115.368H70.4803C70.5843 113.782 71.5463 112.456 73.8603 112.456C75.6283 112.456 76.8243 113.47 76.8243 115.056C76.8243 116.018 76.1223 116.33 75.0563 116.512L72.4823 116.928C70.2203 117.292 68.4523 118.41 68.4523 120.698C68.4523 122.934 70.2463 124.364 72.6383 124.364ZM72.8203 123.064C71.2603 123.064 70.1163 122.128 70.1163 120.698C70.1163 119.19 71.2863 118.462 72.9503 118.15L75.1863 117.76C76.0703 117.604 76.6683 117.344 76.8243 117.032V119.06C76.8243 121.244 75.2383 123.064 72.8203 123.064ZM86.5701 116.798L92.2121 111.494H90.1321L85.2701 116.122C84.8541 116.512 84.4121 116.902 84.0221 117.292V105.8H82.4101V124H84.0221V119.164L85.4261 117.864L90.9121 124H93.1481L86.5701 116.798Z" fill="white"/>
<path d="M73.5236 30V22.35V20.52L79.7486 30H81.1136V19.5H80.1086V27.315V28.845L73.9736 19.5H72.5336V30H73.5236ZM85.008 30V24.975H90.423V24.12H85.008V20.34H90.678V19.5H84.018V30H85.008ZM96.0652 30V20.34H99.7852V19.5H91.3552V20.34H95.0752V30H96.0652Z" fill="white"/>
<path d="M73.5236 30V30.25H73.7736V30H73.5236ZM73.5236 20.52L73.7326 20.3828L73.2736 19.6838V20.52H73.5236ZM79.7486 30L79.5396 30.1372L79.6137 30.25H79.7486V30ZM81.1136 30V30.25H81.3636V30H81.1136ZM81.1136 19.5H81.3636V19.25H81.1136V19.5ZM80.1086 19.5V19.25H79.8586V19.5H80.1086ZM80.1086 28.845L79.8996 28.9822L80.3586 29.6813V28.845H80.1086ZM73.9736 19.5L74.1826 19.3628L74.1085 19.25H73.9736V19.5ZM72.5336 19.5V19.25H72.2836V19.5H72.5336ZM72.5336 30H72.2836V30.25H72.5336V30ZM73.7736 30V22.35H73.2736V30H73.7736ZM73.7736 22.35V20.52H73.2736V22.35H73.7736ZM73.3146 20.6572L79.5396 30.1372L79.9576 29.8628L73.7326 20.3828L73.3146 20.6572ZM79.7486 30.25H81.1136V29.75H79.7486V30.25ZM81.3636 30V19.5H80.8636V30H81.3636ZM81.1136 19.25H80.1086V19.75H81.1136V19.25ZM79.8586 19.5V27.315H80.3586V19.5H79.8586ZM79.8586 27.315V28.845H80.3586V27.315H79.8586ZM80.3176 28.7078L74.1826 19.3628L73.7646 19.6372L79.8996 28.9822L80.3176 28.7078ZM73.9736 19.25H72.5336V19.75H73.9736V19.25ZM72.2836 19.5V30H72.7836V19.5H72.2836ZM72.5336 30.25H73.5236V29.75H72.5336V30.25ZM85.008 30V30.25H85.258V30H85.008ZM85.008 24.975V24.725H84.758V24.975H85.008ZM90.423 24.975V25.225H90.673V24.975H90.423ZM90.423 24.12H90.673V23.87H90.423V24.12ZM85.008 24.12H84.758V24.37H85.008V24.12ZM85.008 20.34V20.09H84.758V20.34H85.008ZM90.678 20.34V20.59H90.928V20.34H90.678ZM90.678 19.5H90.928V19.25H90.678V19.5ZM84.018 19.5V19.25H83.768V19.5H84.018ZM84.018 30H83.768V30.25H84.018V30ZM85.258 30V24.975H84.758V30H85.258ZM85.008 25.225H90.423V24.725H85.008V25.225ZM90.673 24.975V24.12H90.173V24.975H90.673ZM90.423 23.87H85.008V24.37H90.423V23.87ZM85.258 24.12V20.34H84.758V24.12H85.258ZM85.008 20.59H90.678V20.09H85.008V20.59ZM90.928 20.34V19.5H90.428V20.34H90.928ZM90.678 19.25H84.018V19.75H90.678V19.25ZM83.768 19.5V30H84.268V19.5H83.768ZM84.018 30.25H85.008V29.75H84.018V30.25ZM96.0652 30V30.25H96.3152V30H96.0652ZM96.0652 20.34V20.09H95.8152V20.34H96.0652ZM99.7852 20.34V20.59H100.035V20.34H99.7852ZM99.7852 19.5H100.035V19.25H99.7852V19.5ZM91.3552 19.5V19.25H91.1052V19.5H91.3552ZM91.3552 20.34H91.1052V20.59H91.3552V20.34ZM95.0752 20.34H95.3252V20.09H95.0752V20.34ZM95.0752 30H94.8252V30.25H95.0752V30ZM96.3152 30V20.34H95.8152V30H96.3152ZM96.0652 20.59H99.7852V20.09H96.0652V20.59ZM100.035 20.34V19.5H99.5352V20.34H100.035ZM99.7852 19.25H91.3552V19.75H99.7852V19.25ZM91.1052 19.5V20.34H91.6052V19.5H91.1052ZM91.3552 20.59H95.0752V20.09H91.3552V20.59ZM94.8252 20.34V30H95.3252V20.34H94.8252ZM95.0752 30.25H96.0652V29.75H95.0752V30.25Z" fill="white"/>
</svg>
